<mxfile host="app.diagrams.net" modified="2023-11-28T06:42:32.520Z" agent="Mozilla/5.0 (Windows NT 10.0; Win64; x64) AppleWebKit/537.36 (KHTML, like Gecko) Chrome/119.0.0.0 Safari/537.36" etag="F0VH1CnqfwQ30hfEKGJM" version="22.1.4" type="github">
  <diagram id="C5RBs43oDa-KdzZeNtuy" name="Page-1">
    <mxGraphModel dx="1434" dy="746" grid="1" gridSize="10" guides="1" tooltips="1" connect="1" arrows="1" fold="1" page="1" pageScale="1" pageWidth="827" pageHeight="1169" math="0" shadow="0">
      <root>
        <mxCell id="WIyWlLk6GJQsqaUBKTNV-0" />
        <mxCell id="WIyWlLk6GJQsqaUBKTNV-1" parent="WIyWlLk6GJQsqaUBKTNV-0" />
        <mxCell id="WIyWlLk6GJQsqaUBKTNV-2" value="" style="rounded=0;html=1;jettySize=auto;orthogonalLoop=1;fontSize=11;endArrow=block;endFill=0;endSize=8;strokeWidth=1;shadow=0;labelBackgroundColor=none;edgeStyle=orthogonalEdgeStyle;" parent="WIyWlLk6GJQsqaUBKTNV-1" source="WIyWlLk6GJQsqaUBKTNV-3" target="WIyWlLk6GJQsqaUBKTNV-6" edge="1">
          <mxGeometry relative="1" as="geometry" />
        </mxCell>
        <mxCell id="WIyWlLk6GJQsqaUBKTNV-3" value="获取备份文件列表&lt;br&gt;GetBackupFileDetailsForBackup" style="rounded=1;whiteSpace=wrap;html=1;fontSize=12;glass=0;strokeWidth=1;shadow=0;fillColor=#ffe6cc;strokeColor=#d79b00;" parent="WIyWlLk6GJQsqaUBKTNV-1" vertex="1">
          <mxGeometry x="125" y="80" width="190" height="40" as="geometry" />
        </mxCell>
        <mxCell id="WIyWlLk6GJQsqaUBKTNV-4" value="Yes" style="rounded=0;html=1;jettySize=auto;orthogonalLoop=1;fontSize=11;endArrow=block;endFill=0;endSize=8;strokeWidth=1;shadow=0;labelBackgroundColor=none;edgeStyle=orthogonalEdgeStyle;entryX=0.5;entryY=0;entryDx=0;entryDy=0;" parent="WIyWlLk6GJQsqaUBKTNV-1" source="WIyWlLk6GJQsqaUBKTNV-6" target="ZG5lGcymZpSrPfX8MShE-1" edge="1">
          <mxGeometry y="20" relative="1" as="geometry">
            <mxPoint as="offset" />
            <mxPoint x="220" y="290" as="targetPoint" />
          </mxGeometry>
        </mxCell>
        <mxCell id="WIyWlLk6GJQsqaUBKTNV-5" value="No" style="edgeStyle=orthogonalEdgeStyle;rounded=0;html=1;jettySize=auto;orthogonalLoop=1;fontSize=11;endArrow=block;endFill=0;endSize=8;strokeWidth=1;shadow=0;labelBackgroundColor=none;entryX=0;entryY=0.5;entryDx=0;entryDy=0;" parent="WIyWlLk6GJQsqaUBKTNV-1" source="WIyWlLk6GJQsqaUBKTNV-6" target="ZG5lGcymZpSrPfX8MShE-0" edge="1">
          <mxGeometry y="10" relative="1" as="geometry">
            <mxPoint as="offset" />
            <mxPoint x="320" y="210" as="targetPoint" />
          </mxGeometry>
        </mxCell>
        <mxCell id="WIyWlLk6GJQsqaUBKTNV-6" value="文件是否存在" style="rhombus;whiteSpace=wrap;html=1;shadow=0;fontFamily=Helvetica;fontSize=12;align=center;strokeWidth=1;spacing=6;spacingTop=-4;" parent="WIyWlLk6GJQsqaUBKTNV-1" vertex="1">
          <mxGeometry x="170" y="170" width="100" height="80" as="geometry" />
        </mxCell>
        <mxCell id="ZG5lGcymZpSrPfX8MShE-0" value="结束" style="rounded=1;whiteSpace=wrap;html=1;" vertex="1" parent="WIyWlLk6GJQsqaUBKTNV-1">
          <mxGeometry x="600" y="230" width="120" height="60" as="geometry" />
        </mxCell>
        <mxCell id="ZG5lGcymZpSrPfX8MShE-3" value="" style="edgeStyle=orthogonalEdgeStyle;rounded=0;orthogonalLoop=1;jettySize=auto;html=1;" edge="1" parent="WIyWlLk6GJQsqaUBKTNV-1" source="ZG5lGcymZpSrPfX8MShE-1" target="ZG5lGcymZpSrPfX8MShE-2">
          <mxGeometry relative="1" as="geometry" />
        </mxCell>
        <mxCell id="ZG5lGcymZpSrPfX8MShE-1" value="获取文件Hash" style="rounded=0;whiteSpace=wrap;html=1;" vertex="1" parent="WIyWlLk6GJQsqaUBKTNV-1">
          <mxGeometry x="160" y="324" width="120" height="60" as="geometry" />
        </mxCell>
        <mxCell id="ZG5lGcymZpSrPfX8MShE-5" value="" style="edgeStyle=orthogonalEdgeStyle;rounded=0;orthogonalLoop=1;jettySize=auto;html=1;" edge="1" parent="WIyWlLk6GJQsqaUBKTNV-1" source="ZG5lGcymZpSrPfX8MShE-2" target="ZG5lGcymZpSrPfX8MShE-4">
          <mxGeometry relative="1" as="geometry" />
        </mxCell>
        <mxCell id="ZG5lGcymZpSrPfX8MShE-8" value="Yes" style="edgeLabel;html=1;align=center;verticalAlign=middle;resizable=0;points=[];" vertex="1" connectable="0" parent="ZG5lGcymZpSrPfX8MShE-5">
          <mxGeometry x="-0.1064" y="4" relative="1" as="geometry">
            <mxPoint as="offset" />
          </mxGeometry>
        </mxCell>
        <mxCell id="ZG5lGcymZpSrPfX8MShE-28" value="No或超过两天" style="edgeLabel;html=1;align=center;verticalAlign=middle;resizable=0;points=[];" vertex="1" connectable="0" parent="ZG5lGcymZpSrPfX8MShE-5">
          <mxGeometry x="-0.0167" y="8" relative="1" as="geometry">
            <mxPoint as="offset" />
          </mxGeometry>
        </mxCell>
        <mxCell id="ZG5lGcymZpSrPfX8MShE-29" style="edgeStyle=orthogonalEdgeStyle;rounded=0;orthogonalLoop=1;jettySize=auto;html=1;exitX=0.5;exitY=1;exitDx=0;exitDy=0;entryX=0.5;entryY=0;entryDx=0;entryDy=0;" edge="1" parent="WIyWlLk6GJQsqaUBKTNV-1" source="ZG5lGcymZpSrPfX8MShE-2" target="ZG5lGcymZpSrPfX8MShE-6">
          <mxGeometry relative="1" as="geometry" />
        </mxCell>
        <mxCell id="ZG5lGcymZpSrPfX8MShE-30" value="Yes" style="edgeLabel;html=1;align=center;verticalAlign=middle;resizable=0;points=[];" vertex="1" connectable="0" parent="ZG5lGcymZpSrPfX8MShE-29">
          <mxGeometry x="-0.3" y="1" relative="1" as="geometry">
            <mxPoint as="offset" />
          </mxGeometry>
        </mxCell>
        <mxCell id="ZG5lGcymZpSrPfX8MShE-2" value="文本在本地是否有上传记录&lt;br&gt;（切片上传）" style="rhombus;whiteSpace=wrap;html=1;" vertex="1" parent="WIyWlLk6GJQsqaUBKTNV-1">
          <mxGeometry x="180" y="440" width="80" height="80" as="geometry" />
        </mxCell>
        <mxCell id="ZG5lGcymZpSrPfX8MShE-22" value="" style="edgeStyle=orthogonalEdgeStyle;rounded=0;orthogonalLoop=1;jettySize=auto;html=1;" edge="1" parent="WIyWlLk6GJQsqaUBKTNV-1" source="ZG5lGcymZpSrPfX8MShE-4" target="ZG5lGcymZpSrPfX8MShE-21">
          <mxGeometry relative="1" as="geometry" />
        </mxCell>
        <mxCell id="ZG5lGcymZpSrPfX8MShE-4" value="获取文件上传信息" style="whiteSpace=wrap;html=1;fillColor=#ffe6cc;strokeColor=#d79b00;" vertex="1" parent="WIyWlLk6GJQsqaUBKTNV-1">
          <mxGeometry x="380" y="450" width="120" height="60" as="geometry" />
        </mxCell>
        <mxCell id="ZG5lGcymZpSrPfX8MShE-48" style="edgeStyle=orthogonalEdgeStyle;rounded=0;orthogonalLoop=1;jettySize=auto;html=1;exitX=0.5;exitY=1;exitDx=0;exitDy=0;entryX=0;entryY=0.5;entryDx=0;entryDy=0;" edge="1" parent="WIyWlLk6GJQsqaUBKTNV-1" source="ZG5lGcymZpSrPfX8MShE-6" target="ZG5lGcymZpSrPfX8MShE-31">
          <mxGeometry relative="1" as="geometry" />
        </mxCell>
        <mxCell id="ZG5lGcymZpSrPfX8MShE-6" value="读取本地文件切片信息" style="whiteSpace=wrap;html=1;" vertex="1" parent="WIyWlLk6GJQsqaUBKTNV-1">
          <mxGeometry x="160" y="605" width="120" height="60" as="geometry" />
        </mxCell>
        <mxCell id="ZG5lGcymZpSrPfX8MShE-15" value="" style="edgeStyle=orthogonalEdgeStyle;rounded=0;orthogonalLoop=1;jettySize=auto;html=1;" edge="1" parent="WIyWlLk6GJQsqaUBKTNV-1" source="ZG5lGcymZpSrPfX8MShE-12" target="ZG5lGcymZpSrPfX8MShE-14">
          <mxGeometry relative="1" as="geometry" />
        </mxCell>
        <mxCell id="ZG5lGcymZpSrPfX8MShE-18" value="Yes" style="edgeLabel;html=1;align=center;verticalAlign=middle;resizable=0;points=[];" vertex="1" connectable="0" parent="ZG5lGcymZpSrPfX8MShE-15">
          <mxGeometry x="-0.2667" relative="1" as="geometry">
            <mxPoint as="offset" />
          </mxGeometry>
        </mxCell>
        <mxCell id="ZG5lGcymZpSrPfX8MShE-17" value="" style="edgeStyle=orthogonalEdgeStyle;rounded=0;orthogonalLoop=1;jettySize=auto;html=1;" edge="1" parent="WIyWlLk6GJQsqaUBKTNV-1" source="ZG5lGcymZpSrPfX8MShE-12" target="ZG5lGcymZpSrPfX8MShE-16">
          <mxGeometry relative="1" as="geometry" />
        </mxCell>
        <mxCell id="ZG5lGcymZpSrPfX8MShE-19" value="No" style="edgeLabel;html=1;align=center;verticalAlign=middle;resizable=0;points=[];" vertex="1" connectable="0" parent="ZG5lGcymZpSrPfX8MShE-17">
          <mxGeometry x="-0.3667" y="1" relative="1" as="geometry">
            <mxPoint as="offset" />
          </mxGeometry>
        </mxCell>
        <mxCell id="ZG5lGcymZpSrPfX8MShE-12" value="文件是否切片上传" style="rhombus;whiteSpace=wrap;html=1;" vertex="1" parent="WIyWlLk6GJQsqaUBKTNV-1">
          <mxGeometry x="620" y="595" width="80" height="80" as="geometry" />
        </mxCell>
        <mxCell id="ZG5lGcymZpSrPfX8MShE-32" value="" style="edgeStyle=orthogonalEdgeStyle;rounded=0;orthogonalLoop=1;jettySize=auto;html=1;" edge="1" parent="WIyWlLk6GJQsqaUBKTNV-1" source="ZG5lGcymZpSrPfX8MShE-14" target="ZG5lGcymZpSrPfX8MShE-31">
          <mxGeometry relative="1" as="geometry" />
        </mxCell>
        <mxCell id="ZG5lGcymZpSrPfX8MShE-14" value="文件信息保存到本地" style="whiteSpace=wrap;html=1;" vertex="1" parent="WIyWlLk6GJQsqaUBKTNV-1">
          <mxGeometry x="354" y="605" width="120" height="60" as="geometry" />
        </mxCell>
        <mxCell id="ZG5lGcymZpSrPfX8MShE-44" style="edgeStyle=orthogonalEdgeStyle;rounded=0;orthogonalLoop=1;jettySize=auto;html=1;exitX=0.5;exitY=1;exitDx=0;exitDy=0;entryX=0.5;entryY=0;entryDx=0;entryDy=0;" edge="1" parent="WIyWlLk6GJQsqaUBKTNV-1" source="ZG5lGcymZpSrPfX8MShE-16" target="ZG5lGcymZpSrPfX8MShE-42">
          <mxGeometry relative="1" as="geometry" />
        </mxCell>
        <mxCell id="ZG5lGcymZpSrPfX8MShE-16" value="文件上传至minio" style="whiteSpace=wrap;html=1;" vertex="1" parent="WIyWlLk6GJQsqaUBKTNV-1">
          <mxGeometry x="600" y="740" width="120" height="60" as="geometry" />
        </mxCell>
        <mxCell id="ZG5lGcymZpSrPfX8MShE-23" style="edgeStyle=orthogonalEdgeStyle;rounded=0;orthogonalLoop=1;jettySize=auto;html=1;exitX=0.5;exitY=0;exitDx=0;exitDy=0;entryX=0.5;entryY=1;entryDx=0;entryDy=0;" edge="1" parent="WIyWlLk6GJQsqaUBKTNV-1" source="ZG5lGcymZpSrPfX8MShE-21" target="ZG5lGcymZpSrPfX8MShE-0">
          <mxGeometry relative="1" as="geometry" />
        </mxCell>
        <mxCell id="ZG5lGcymZpSrPfX8MShE-25" value="Yes" style="edgeLabel;html=1;align=center;verticalAlign=middle;resizable=0;points=[];" vertex="1" connectable="0" parent="ZG5lGcymZpSrPfX8MShE-23">
          <mxGeometry x="-0.5474" y="1" relative="1" as="geometry">
            <mxPoint as="offset" />
          </mxGeometry>
        </mxCell>
        <mxCell id="ZG5lGcymZpSrPfX8MShE-24" style="edgeStyle=orthogonalEdgeStyle;rounded=0;orthogonalLoop=1;jettySize=auto;html=1;exitX=0.5;exitY=1;exitDx=0;exitDy=0;entryX=0.5;entryY=0;entryDx=0;entryDy=0;" edge="1" parent="WIyWlLk6GJQsqaUBKTNV-1" source="ZG5lGcymZpSrPfX8MShE-21" target="ZG5lGcymZpSrPfX8MShE-12">
          <mxGeometry relative="1" as="geometry" />
        </mxCell>
        <mxCell id="ZG5lGcymZpSrPfX8MShE-26" value="No" style="edgeLabel;html=1;align=center;verticalAlign=middle;resizable=0;points=[];" vertex="1" connectable="0" parent="ZG5lGcymZpSrPfX8MShE-24">
          <mxGeometry x="-0.3067" y="1" relative="1" as="geometry">
            <mxPoint as="offset" />
          </mxGeometry>
        </mxCell>
        <mxCell id="ZG5lGcymZpSrPfX8MShE-21" value="文件是否正在上传（其他用户）" style="rhombus;whiteSpace=wrap;html=1;" vertex="1" parent="WIyWlLk6GJQsqaUBKTNV-1">
          <mxGeometry x="620" y="440" width="80" height="80" as="geometry" />
        </mxCell>
        <mxCell id="ZG5lGcymZpSrPfX8MShE-34" value="" style="edgeStyle=orthogonalEdgeStyle;rounded=0;orthogonalLoop=1;jettySize=auto;html=1;" edge="1" parent="WIyWlLk6GJQsqaUBKTNV-1" source="ZG5lGcymZpSrPfX8MShE-31" target="ZG5lGcymZpSrPfX8MShE-33">
          <mxGeometry relative="1" as="geometry" />
        </mxCell>
        <mxCell id="ZG5lGcymZpSrPfX8MShE-31" value="文件切片上传到Minio" style="whiteSpace=wrap;html=1;" vertex="1" parent="WIyWlLk6GJQsqaUBKTNV-1">
          <mxGeometry x="354" y="730" width="120" height="60" as="geometry" />
        </mxCell>
        <mxCell id="ZG5lGcymZpSrPfX8MShE-36" value="" style="edgeStyle=orthogonalEdgeStyle;rounded=0;orthogonalLoop=1;jettySize=auto;html=1;" edge="1" parent="WIyWlLk6GJQsqaUBKTNV-1" source="ZG5lGcymZpSrPfX8MShE-33" target="ZG5lGcymZpSrPfX8MShE-35">
          <mxGeometry relative="1" as="geometry" />
        </mxCell>
        <mxCell id="ZG5lGcymZpSrPfX8MShE-33" value="切片上传信息保存到本地" style="whiteSpace=wrap;html=1;" vertex="1" parent="WIyWlLk6GJQsqaUBKTNV-1">
          <mxGeometry x="354" y="870" width="120" height="60" as="geometry" />
        </mxCell>
        <mxCell id="ZG5lGcymZpSrPfX8MShE-38" style="edgeStyle=orthogonalEdgeStyle;rounded=0;orthogonalLoop=1;jettySize=auto;html=1;exitX=0.5;exitY=1;exitDx=0;exitDy=0;entryX=0.5;entryY=0;entryDx=0;entryDy=0;" edge="1" parent="WIyWlLk6GJQsqaUBKTNV-1" source="ZG5lGcymZpSrPfX8MShE-35" target="ZG5lGcymZpSrPfX8MShE-45">
          <mxGeometry relative="1" as="geometry">
            <mxPoint x="414" y="1200" as="targetPoint" />
          </mxGeometry>
        </mxCell>
        <mxCell id="ZG5lGcymZpSrPfX8MShE-39" value="No" style="edgeLabel;html=1;align=center;verticalAlign=middle;resizable=0;points=[];" vertex="1" connectable="0" parent="ZG5lGcymZpSrPfX8MShE-38">
          <mxGeometry x="0.0052" y="-3" relative="1" as="geometry">
            <mxPoint as="offset" />
          </mxGeometry>
        </mxCell>
        <mxCell id="ZG5lGcymZpSrPfX8MShE-41" value="" style="edgeStyle=orthogonalEdgeStyle;rounded=0;orthogonalLoop=1;jettySize=auto;html=1;" edge="1" parent="WIyWlLk6GJQsqaUBKTNV-1" source="ZG5lGcymZpSrPfX8MShE-35" target="ZG5lGcymZpSrPfX8MShE-40">
          <mxGeometry relative="1" as="geometry" />
        </mxCell>
        <mxCell id="ZG5lGcymZpSrPfX8MShE-35" value="是否全部上传成功" style="rhombus;whiteSpace=wrap;html=1;" vertex="1" parent="WIyWlLk6GJQsqaUBKTNV-1">
          <mxGeometry x="374" y="1000" width="80" height="80" as="geometry" />
        </mxCell>
        <mxCell id="ZG5lGcymZpSrPfX8MShE-43" value="" style="edgeStyle=orthogonalEdgeStyle;rounded=0;orthogonalLoop=1;jettySize=auto;html=1;" edge="1" parent="WIyWlLk6GJQsqaUBKTNV-1" source="ZG5lGcymZpSrPfX8MShE-40" target="ZG5lGcymZpSrPfX8MShE-42">
          <mxGeometry relative="1" as="geometry" />
        </mxCell>
        <mxCell id="ZG5lGcymZpSrPfX8MShE-40" value="文件合并" style="whiteSpace=wrap;html=1;fillColor=#ffe6cc;strokeColor=#d79b00;" vertex="1" parent="WIyWlLk6GJQsqaUBKTNV-1">
          <mxGeometry x="600" y="1010" width="120" height="60" as="geometry" />
        </mxCell>
        <mxCell id="ZG5lGcymZpSrPfX8MShE-46" style="edgeStyle=orthogonalEdgeStyle;rounded=0;orthogonalLoop=1;jettySize=auto;html=1;exitX=1;exitY=0.5;exitDx=0;exitDy=0;entryX=1;entryY=0.5;entryDx=0;entryDy=0;" edge="1" parent="WIyWlLk6GJQsqaUBKTNV-1" source="ZG5lGcymZpSrPfX8MShE-42" target="ZG5lGcymZpSrPfX8MShE-45">
          <mxGeometry relative="1" as="geometry" />
        </mxCell>
        <mxCell id="ZG5lGcymZpSrPfX8MShE-42" value="通知" style="whiteSpace=wrap;html=1;" vertex="1" parent="WIyWlLk6GJQsqaUBKTNV-1">
          <mxGeometry x="600" y="870" width="120" height="60" as="geometry" />
        </mxCell>
        <mxCell id="ZG5lGcymZpSrPfX8MShE-45" value="上传结果通知服务端" style="rounded=1;whiteSpace=wrap;html=1;fillColor=#ffe6cc;strokeColor=#d79b00;" vertex="1" parent="WIyWlLk6GJQsqaUBKTNV-1">
          <mxGeometry x="210" y="1310" width="120" height="60" as="geometry" />
        </mxCell>
      </root>
    </mxGraphModel>
  </diagram>
</mxfile>
